# xmcd CD database file
#
# Track frame offsets:
#	150
#	12784
#	26487
#	39127
#	52460
#	65392
#	79387
#	91972
#	105622
#	118710
#	131982
#	144880
#	158030
#	171647
#
# Disc length: 2454 seconds
#
# Revision: 1
# Processed by: cddbd v1.5PL3 Copyright (c) Steve Scherf et al.
# Submitted via: CDex 1.51
#
DISCID=bd09940e
DTITLE=Golden select - country and western
DYEAR=1900
DGENRE=Country
TTITLE0=I Saw The Light
TTITLE1=There's A New Moon Over My Shoulder
TTITLE2=Pistol Packin' Mama
TTITLE3=Teardrops In My Heart
TTITLE4=Peach Pickin'
TTITLE5=Rainbow At Midnight
TTITLE6=I'll Never Trust You Again
TTITLE7=Molly Darling
TTITLE8=Keep On The Sanny Side
TTITLE9=Great Speckled Bird
TTITLE10=Roly Poly
TTITLE11=Summertime Is Past And Gone
TTITLE12=The Leaf Of love
TTITLE13=One Has My Name
EXTD=
EXTT0=
EXTT1=
EXTT2=
EXTT3=
EXTT4=
EXTT5=
EXTT6=
EXTT7=
EXTT8=
EXTT9=
EXTT10=
EXTT11=
EXTT12=
EXTT13=
PLAYORDER=
